<svg aria-hidden="true" style="position: absolute; width: 0; height: 0; overflow: hidden;" version="1.1" xmlns="http://www.w3.org/2000/svg" xmlns:xlink="http://www.w3.org/1999/xlink">
<defs>
<symbol id="icon-left-quote" viewBox="0 0 32 32">
<title>left-quote</title>
<path d="M32 28v-12h-8c0-4.41 3.586-8 8-8v-4c-6.617 0-12 5.383-12 12v12h12zM12 28v-12h-8c0-4.41 3.586-8 8-8v-4c-6.617 0-12 5.383-12 12v12h12z"></path>
</symbol>
<symbol id="icon-right-quote" viewBox="0 0 32 32">
<title>right-quote</title>
<path d="M0 4v12h8c0 4.41-3.586 8-8 8v4c6.617 0 12-5.383 12-12v-12h-12zM20 4v12h8c0 4.41-3.586 8-8 8v4c6.617 0 12-5.383 12-12v-12h-12z"></path>
</symbol>
<symbol id="icon-user2" viewBox="0 0 32 32">
<title>user2</title>
<path d="M18 22.082v-1.649c2.203-1.241 4-4.337 4-7.432 0-4.971 0-9-6-9s-6 4.029-6 9c0 3.096 1.797 6.191 4 7.432v1.649c-6.784 0.555-12 3.888-12 7.918h28c0-4.030-5.216-7.364-12-7.918z"></path>
</symbol>
<symbol id="icon-twitter" viewBox="0 0 32 32">
<title>twitter</title>
<path d="M32 7.075c-1.175 0.525-2.444 0.875-3.769 1.031 1.356-0.813 2.394-2.1 2.887-3.631-1.269 0.75-2.675 1.3-4.169 1.594-1.2-1.275-2.906-2.069-4.794-2.069-3.625 0-6.563 2.938-6.563 6.563 0 0.512 0.056 1.012 0.169 1.494-5.456-0.275-10.294-2.888-13.531-6.862-0.563 0.969-0.887 2.1-0.887 3.3 0 2.275 1.156 4.287 2.919 5.463-1.075-0.031-2.087-0.331-2.975-0.819 0 0.025 0 0.056 0 0.081 0 3.181 2.263 5.838 5.269 6.437-0.55 0.15-1.131 0.231-1.731 0.231-0.425 0-0.831-0.044-1.237-0.119 0.838 2.606 3.263 4.506 6.131 4.563-2.25 1.762-5.075 2.813-8.156 2.813-0.531 0-1.050-0.031-1.569-0.094 2.913 1.869 6.362 2.95 10.069 2.95 12.075 0 18.681-10.006 18.681-18.681 0-0.287-0.006-0.569-0.019-0.85 1.281-0.919 2.394-2.075 3.275-3.394z"></path>
</symbol>
<symbol id="icon-genius" viewBox="0 0 30 32">
<title>genius</title>
<path d="M0.567 24c0.785 1.36 2.548 2.079 5.097 2.079 0 0 0 0 0.001 0 1.146 0 2.407-0.161 3.722-0.438 1.266 3.879 3.287 6.359 5.613 6.359s4.347-2.48 5.613-6.359c1.316 0.276 2.577 0.438 3.723 0.438 0 0 0 0 0 0 2.548 0 4.311-0.719 5.096-2.079 1.016-1.761 0.117-4.72-2.966-8 3.083-3.28 3.982-6.239 2.966-8-0.785-1.36-2.548-2.079-5.097-2.079-1.146 0-2.408 0.161-3.723 0.438-1.265-3.879-3.286-6.359-5.612-6.359s-4.347 2.48-5.613 6.359c-1.316-0.277-2.578-0.438-3.723-0.438-2.549 0-4.312 0.719-5.097 2.079-1.016 1.761-0.117 4.72 2.966 8-3.083 3.28-3.983 6.239-2.966 8zM15 31c-1.839 0-3.516-2.199-4.627-5.579 1.503-0.381 3.066-0.92 4.627-1.599 1.561 0.679 3.124 1.218 4.627 1.599-1.111 3.38-2.788 5.579-4.627 5.579zM9 16c0-1.164 0.062-2.297 0.168-3.393 0.893-0.622 1.837-1.228 2.832-1.803 0.984-0.568 1.991-1.077 3-1.533 1.009 0.455 2.016 0.964 3 1.533 0.995 0.574 1.938 1.18 2.832 1.803 0.106 1.096 0.168 2.229 0.168 3.393s-0.062 2.297-0.168 3.393c-0.893 0.622-1.837 1.228-2.832 1.803-0.984 0.568-1.991 1.077-3 1.533-1.009-0.455-2.016-0.964-3-1.533-0.995-0.574-1.938-1.18-2.832-1.803-0.106-1.096-0.168-2.229-0.168-3.393zM8.098 18.623c-1.146-0.861-2.184-1.745-3.086-2.623 0.902-0.878 1.94-1.762 3.086-2.623-0.059 0.854-0.098 1.725-0.098 2.623s0.039 1.769 0.098 2.623zM9.321 11.286c0.184-1.341 0.442-2.604 0.764-3.754 1.195 0.301 2.435 0.717 3.682 1.219-0.762 0.369-1.522 0.757-2.267 1.187-0.773 0.447-1.488 0.897-2.179 1.348zM16.232 8.751c1.247-0.502 2.487-0.918 3.682-1.219 0.322 1.15 0.58 2.413 0.764 3.754-0.69-0.451-1.406-0.901-2.179-1.348-0.744-0.43-1.504-0.818-2.267-1.187zM21.902 13.377c1.147 0.861 2.184 1.744 3.086 2.623-0.902 0.878-1.94 1.762-3.086 2.623 0.059-0.854 0.098-1.725 0.098-2.623s-0.039-1.769-0.098-2.623zM20.679 20.714c-0.184 1.341-0.442 2.604-0.764 3.754-1.195-0.301-2.435-0.717-3.682-1.219 0.763-0.368 1.523-0.757 2.268-1.187 0.772-0.447 1.487-0.897 2.178-1.348zM11.5 22.062c0.745 0.43 1.505 0.819 2.268 1.187-1.247 0.502-2.487 0.918-3.682 1.219-0.322-1.15-0.58-2.413-0.764-3.754 0.69 0.451 1.405 0.901 2.178 1.348zM28.567 23.5c-0.588 1.019-2.090 1.579-4.23 1.579-1.056 0-2.218-0.146-3.432-0.395 0.396-1.424 0.693-3.008 0.877-4.708 1.546-1.084 2.851-2.168 3.94-3.229 2.532 2.682 3.726 5.226 2.845 6.753zM24.336 6.921c2.14 0 3.643 0.561 4.23 1.579 0.882 1.527-0.313 4.071-2.845 6.753-1.089-1.060-2.394-2.145-3.94-3.229-0.184-1.7-0.481-3.284-0.877-4.708 1.214-0.249 2.377-0.395 3.432-0.395zM15 1c1.839 0 3.516 2.199 4.627 5.579-1.503 0.381-3.066 0.92-4.627 1.599-1.561-0.679-3.124-1.218-4.627-1.599 1.111-3.38 2.788-5.579 4.627-5.579zM1.433 8.5c0.588-1.019 2.090-1.579 4.23-1.579 1.056 0 2.218 0.146 3.432 0.395-0.396 1.424-0.693 3.008-0.877 4.708-1.546 1.084-2.851 2.168-3.94 3.229-2.532-2.682-3.726-5.226-2.845-6.753zM4.278 16.747c1.089 1.060 2.394 2.145 3.94 3.229 0.184 1.7 0.481 3.284 0.877 4.708-1.213 0.249-2.375 0.395-3.431 0.395 0 0-0.001 0-0.001 0-2.14 0-3.643-0.561-4.23-1.579-0.881-1.527 0.313-4.071 2.845-6.753zM15 18.5c1.378 0 2.5-1.121 2.5-2.5s-1.122-2.5-2.5-2.5-2.5 1.121-2.5 2.5 1.122 2.5 2.5 2.5zM15 14.5c0.827 0 1.5 0.673 1.5 1.5s-0.673 1.5-1.5 1.5-1.5-0.673-1.5-1.5 0.673-1.5 1.5-1.5z"></path>
</symbol>
</defs>
</svg>
